<?xml version="1.0" encoding="utf-8"?>
<svg xmlns="http://www.w3.org/2000/svg" height="96px" version="1.1" viewBox="0 0 96 96" width="96px">
    <title>icon-instant-analyze</title>
    <g fill="none" fill-rule="evenodd" id="Page-1" stroke="none" stroke-width="1">
        <g id="Artboard" transform="translate(-451.000000, -1386.000000)">
            <g id="icon-instant-analyze" transform="translate(451.000000, 1386.000000)">
                <circle cx="48" cy="48" fill="#FE6100" id="Oval" r="48"/>
                <path d="M50.002,42 C51.3827119,42 52.502,43.1192881 52.502,44.5 L52.502,44.5 L52.502,69 L57.002,69 L57.002,53.5 C57.002,52.1763905 58.0307284,51.0926553 59.3355179,51.005632 L59.5,51 L65.002,51 C66.3827119,51 67.502,52.1192881 67.502,53.5 L67.502,53.5 L67.502,69 L69,69 C69.8284271,69 70.5,69.6715729 70.5,70.5 C70.5,71.2796961 69.9051119,71.9204487 69.14446,71.9931334 L69,72 L25.5,72 C24.6715729,72 24,71.3284271 24,70.5 C24,69.7203039 24.5948881,69.0795513 25.35554,69.0068666 L25.5,69 L27,69 L27,62.5 C27,61.1745166 28.0315359,60.0899613 29.3356243,60.0053177 L29.5,60 L35.002,60 C36.3827119,60 37.502,61.1192881 37.502,62.5 L37.502,62.5 L37.502,69 L42,69 L42,44.5 C42,43.1745166 43.0315359,42.0899613 44.3356243,42.0053177 L44.5,42 Z M34.501,63 L29.999,63 L29.999,69 L34.501,69 L34.501,63 Z M49.501,45 L44.999,45 L44.999,69 L49.501,69 L49.501,45 Z M60.002,53.999 L60.002,69 L64.502,69 L64.502,54 L60.002,53.999 Z M67.502,24 C69.9872814,24 72.002,26.0147186 72.002,28.5 C72.002,30.9852814 69.9872814,33 67.502,33 C66.3634396,33 65.3236386,32.5771606 64.531065,31.8799498 L59.6324654,35.7112678 C59.8702105,36.2595081 60.002,36.8643635 60.002,37.5 C60.002,39.9852814 57.9872814,42 55.502,42 C53.1080147,42 51.1506551,40.1305828 51.0100797,37.7719066 L43.9550215,35.8853697 C43.1295557,36.873425 41.8881837,37.502 40.5,37.502 C39.4174801,37.502 38.4242369,37.1197609 37.6478767,36.4828891 L31.9783979,42.1468425 C32.616764,42.9236482 33,43.9180693 33,45.002 C33,47.4872814 30.9852814,49.502 28.5,49.502 C26.0147186,49.502 24,47.4872814 24,45.002 C24,42.5167186 26.0147186,40.502 28.5,40.502 C28.7753302,40.502 29.0448851,40.526727 29.3065651,40.5740814 L36.0731629,33.8145186 C36.0251035,33.5509741 36,33.2794187 36,33.002 C36,30.5167186 38.0147186,28.502 40.5,28.502 C42.9852814,28.502 45,30.5167186 45,33.002 C45,33.0205092 44.9998883,33.0389923 44.9996654,33.0574487 L51.8387211,34.885897 C52.654903,33.7441814 53.991545,33 55.502,33 C56.2517968,33 56.958763,33.1833793 57.5804958,33.5077351 L63.0599244,29.2239328 C63.02181,28.9882525 63.002,28.7464397 63.002,28.5 C63.002,26.0147186 65.0167186,24 67.502,24 Z M28.5,43.502 C27.6715729,43.502 27,44.1735729 27,45.002 C27,45.8304271 27.6715729,46.502 28.5,46.502 C29.3284271,46.502 30,45.8304271 30,45.002 C30,44.1735729 29.3284271,43.502 28.5,43.502 Z M55.502,36 C54.6735729,36 54.002,36.6715729 54.002,37.5 C54.002,38.3284271 54.6735729,39 55.502,39 C56.3304271,39 57.002,38.3284271 57.002,37.5 C57.002,36.6715729 56.3304271,36 55.502,36 Z M40.5,31.502 C39.6715729,31.502 39,32.1735729 39,33.002 C39,33.8304271 39.6715729,34.502 40.5,34.502 C41.3284271,34.502 42,33.8304271 42,33.002 C42,32.1735729 41.3284271,31.502 40.5,31.502 Z M67.502,27 C66.6735729,27 66.002,27.6715729 66.002,28.5 C66.002,29.3284271 66.6735729,30 67.502,30 C68.3304271,30 69.002,29.3284271 69.002,28.5 C69.002,27.6715729 68.3304271,27 67.502,27 Z" fill="#FFFFFF" fill-rule="nonzero" id="Combined-Shape"/>
            </g>
        </g>
    </g>
</svg>