<?xml version="1.0" encoding="UTF-8"?>
<svg width="96px" height="96px" viewBox="0 0 96 96" version="1.1" xmlns="http://www.w3.org/2000/svg" xmlns:xlink="http://www.w3.org/1999/xlink">
    <title>icon-seo-monitor</title>
    <g id="Page-1" stroke="none" stroke-width="1" fill="none" fill-rule="evenodd">
        <g id="Artboard" transform="translate(-858.000000, -1386.000000)">
            <g id="icon-seo-monitor" transform="translate(858.000000, 1386.000000)">
                <circle id="Oval-Copy" fill="#FE6100" cx="48" cy="48" r="48"></circle>
                <path d="M61.7781312,42.1267952 C62.6065583,42.1267952 63.278,42.7984814 63.278,43.6268864 C63.2775825,48.4000296 61.5459043,52.9069962 58.5499518,56.4014688 L71.561717,69.4404658 C72.1469192,70.0268203 72.1459724,70.976542 71.5596023,71.5617286 C71.0265386,72.0937165 70.1931634,72.1412966 69.606375,71.7050141 L69.438283,71.559614 L56.4285297,58.5233361 C55.1719416,59.6009914 53.767307,60.5291762 52.2358339,61.2739968 C45.4814981,64.5589182 37.4446823,63.7010251 31.5359821,59.0643828 C30.8842648,58.5529709 30.7705359,57.6100824 31.2819615,56.9583825 C31.793387,56.3066826 32.7363006,56.1929567 33.3880179,56.7043686 C38.3935233,60.6322609 45.2018439,61.3590178 50.9237223,58.5762244 C56.6456007,55.7934311 60.2774435,49.9891777 60.278,43.626624 C60.2780725,42.798219 60.9497041,42.1267952 61.7781312,42.1267952 Z M70.5,25.5012377 C70.6438691,25.5012377 70.7830075,25.5214916 70.9147193,25.5593034 C70.9305164,25.5639378 70.9466758,25.5688616 70.962765,25.5740643 C70.9928659,25.5837425 71.0220722,25.5942432 71.0508429,25.6056078 C71.0646624,25.6110728 71.0783987,25.6167249 71.0920658,25.6225897 C71.1222013,25.6355694 71.1517426,25.6494466 71.1807389,25.6642394 C71.1911762,25.6694583 71.201888,25.6750766 71.2125451,25.6808334 C71.2425442,25.6971945 71.2712528,25.7140056 71.2993328,25.7317225 C71.3180465,25.7433646 71.3372221,25.7560723 71.356162,25.7692675 C71.3758423,25.7831214 71.3948264,25.7970225 71.4134642,25.8113517 C71.4299893,25.8239611 71.4463241,25.8370813 71.4624425,25.8505939 C71.4861866,25.8705416 71.5092752,25.8911172 71.5317072,25.9123785 C71.5396413,25.9198892 71.5480245,25.9280154 71.5563355,25.9362589 L71.5722931,25.9523266 C71.5945371,25.975063 71.6160638,25.9985039 71.6368366,26.0226129 L71.5563355,25.9362589 C71.5938099,25.9734285 71.6289124,26.0120853 71.6616421,26.052041 C71.6846445,26.0802824 71.7065861,26.1091727 71.7274784,26.1388549 C71.7343985,26.1484564 71.7411358,26.1582689 71.7477434,26.1681427 C71.7538619,26.1775362 71.7598491,26.186704 71.7657379,26.1959406 C71.8184237,26.278307 71.862206,26.36492 71.8971108,26.4542127 C71.9070222,26.4794105 71.9164018,26.5054214 71.9250718,26.5317545 L71.9299844,26.5472696 C71.951339,26.6147359 71.9678104,26.6834184 71.9793964,26.7527624 C71.9819389,26.7672294 71.9842375,26.7824093 71.9863068,26.7976621 C71.9953382,26.8674246 71.9995608,26.9293649 71.9999676,26.9913285 L72,27.0011978 L72,36.6429411 C72,37.4713462 71.3284271,38.1429012 70.5,38.1429012 C69.7406085,38.1429012 69.1130181,37.5786085 69.0136932,36.8464768 L69,36.6429411 L68.999,30.643 L53.4495751,46.320428 C52.8132842,46.957801 51.9496287,47.315966 51.049,47.315966 C50.2609499,47.315966 49.5012074,47.0417459 48.8977876,46.546669 L48.6491231,46.3211269 L43.7586646,41.428797 C43.6350107,41.3054548 43.4501554,41.2807863 43.3026014,41.3542122 L43.2004689,41.4276652 L26.5604689,58.0612224 C25.9745768,58.6468876 25.0248294,58.6467164 24.4391486,58.0608399 C23.9067115,57.528225 23.8584497,56.6949111 24.2942645,56.1077823 L24.4395311,55.9395761 L41.0806646,39.304887 C42.3282236,38.0604716 44.3022171,37.9872707 45.6365242,39.0865681 L45.8788769,39.3064269 L50.7715751,44.2009955 C50.8451087,44.2746541 50.9449179,44.3160458 51.049,44.3160458 C51.1183881,44.3160458 51.1858771,44.2976495 51.2439426,44.2645706 L51.3230327,44.2044043 L66.899,28.501 L60.886,28.5011579 C60.1266085,28.5011579 59.4990181,27.9368651 59.3996932,27.2047335 L59.386,27.0011978 C59.386,26.2418265 59.9503078,25.6142528 60.6824589,25.5149306 L60.886,25.5012377 L70.5,25.5012377 Z M57.3554509,29.5774223 C57.9484429,30.155898 57.9601981,31.1055475 57.3817069,31.6985237 C56.8032158,32.2914998 55.8535411,32.3032548 55.2605491,31.724779 C50.474101,27.0555012 43.3558298,25.7084751 37.1941772,28.305989 C31.0325245,30.9035028 27.0269828,36.9398971 27.0279996,43.6267552 C27.0279996,44.1396271 27.0500261,44.6400993 27.0939617,45.1282587 C27.16822,45.953329 26.5595488,46.6823773 25.7344565,46.7566336 C24.9093643,46.8308899 24.1802966,46.2222349 24.1060383,45.3971647 C24.0539737,44.8186835 24.0279996,44.2285179 24.0279996,43.6269834 C24.0267993,35.7336709 28.755189,28.607937 36.0287857,25.5416706 C43.3023824,22.4754042 51.7052309,24.0655173 57.3554509,29.5774223 Z" id="Combined-Shape" fill="#FFFFFF" fill-rule="nonzero"></path>
            </g>
        </g>
    </g>
</svg>