<?xml version="1.0" encoding="UTF-8"?>
<svg width="96px" height="96px" viewBox="0 0 96 96" version="1.1" xmlns="http://www.w3.org/2000/svg" xmlns:xlink="http://www.w3.org/1999/xlink">
    <title>icon-competitor</title>
    <g id="Page-1" stroke="none" stroke-width="1" fill="none" fill-rule="evenodd">
        <g id="Artboard" transform="translate(-1265.000000, -1386.000000)">
            <g id="icon-competitor" transform="translate(1265.000000, 1386.000000)">
                <circle id="Oval-Copy-2" fill="#FE6100" cx="48" cy="48" r="48"></circle>
                <path d="M52.4999936,45 C54.985272,45 56.9999882,47.0147186 56.9999882,49.5 L56.9999882,49.5 L56.999,57 L67.4999755,57 C69.9142459,57 71.8844593,58.9012365 71.9950721,61.2881643 L71.9999701,61.5 L71.9999701,70.5 C71.9999701,71.3284271 71.328398,72 70.4999719,72 L70.4999719,72 L25.5000279,72 C24.6716,72 24.0000279,71.3284271 24.0000279,70.5 L24.0000279,70.5 L24.0000279,61.5 C24.0000279,59.0147186 26.0147441,57 28.5000279,57 L28.5000279,57 L39,57 L39.0000098,49.5 C39.0000098,47.0857267 40.9012441,45.1155109 43.2881739,45.004898 L43.5000098,45 Z M39.0000098,60 L28.5000243,60 C27.6715964,60 27.0000243,60.6715729 27.0000243,61.5 L27.0000243,61.5 L27.0000243,69 L39.0000098,69 L39.0000098,60 Z M67.4999755,60 L56.9999882,60 L56.9999882,69 L68.9999737,69 L68.9999737,61.5 C68.9999737,60.7406085 68.4356666,60.1130181 67.7035164,60.0136932 L67.7035164,60.0136932 L67.4999755,60 Z M52.4999936,48 L43.5000062,48 C42.6715783,48 42.0000062,48.6715729 42.0000062,49.5 L42.0000062,49.5 L42.0000062,69 L53.9999918,69 L53.9999918,49.5 C53.9999918,48.7406085 53.4356847,48.1130181 52.7035344,48.0136932 L52.7035344,48.0136932 L52.4999936,48 Z M64.0019797,37.5 C67.7298973,37.5 70.7519716,40.5220779 70.7519716,44.25 C70.7519716,46.7431305 69.4003301,48.9205678 67.3898608,50.0894975 C69.0074216,50.6665143 70.4818405,51.6634257 71.6425887,53.0281853 C72.1793064,53.6592359 72.1028352,54.6058997 71.4717854,55.1426181 C70.8407356,55.6793366 69.8940729,55.6028653 69.3573551,54.9718147 C67.539434,52.8343782 64.6233193,51.9848157 61.9418711,52.8114344 C61.1502081,53.0554829 60.3105983,52.6115529 60.0665501,51.8198889 C59.8653299,51.1671542 60.1318083,50.4818244 60.6752732,50.1245963 C58.6310914,48.9645534 57.2519878,46.7683303 57.2519878,44.25 C57.2519878,40.5220779 60.2740621,37.5 64.0019797,37.5 Z M31.9980183,37.5 C35.7259358,37.5 38.7480101,40.5220779 38.7480101,44.25 C38.7480101,46.7699828 37.3670961,48.9674354 35.3207096,50.1269156 C35.8601574,50.4849193 36.123912,51.1675615 35.9234566,51.8178608 C35.6794239,52.6095295 34.8398228,53.0534761 34.048155,52.8094431 C33.3843,52.6048086 32.693596,52.5005094 32.0024672,52.5000004 C29.9395105,52.503366 27.9808668,53.4073565 26.6398978,54.975033 C26.1014026,55.6045675 25.154528,55.6783689 24.5249943,55.1398731 C23.8954605,54.6013772 23.8216592,53.6545015 24.3601544,53.024967 C25.5120418,51.6783387 26.9839431,50.6755626 28.6162202,50.090677 C26.6023568,48.9248971 25.2480264,46.7456092 25.2480264,44.25 C25.2480264,40.5220779 28.2701007,37.5 31.9980183,37.5 Z M64.0019797,40.5 C61.9309144,40.5 60.2519842,42.1789322 60.2519842,44.25 C60.2519842,46.3210678 61.9309144,48 64.0019797,48 C66.073045,48 67.7519842,46.3210678 67.7519842,44.25 C67.7519842,42.1789322 66.073045,40.5 64.0019797,40.5 Z M31.9980183,40.5 C29.926953,40.5 28.2480228,42.1789322 28.2480228,44.25 C28.2480228,46.3210678 29.926953,48 31.9980183,48 C34.0690836,48 35.7480228,46.3210678 35.7480228,44.25 C35.7480228,42.1789322 34.0690836,40.5 31.9980183,40.5 Z M47.999999,24 C51.7279166,24 54.7499909,27.0220779 54.7499909,30.75 C54.7499909,33.2431305 53.3983494,35.4205678 51.3878801,36.5894975 C53.0193655,37.1731271 54.4905808,38.1779017 55.6399434,39.5274045 C56.1770924,40.1580881 56.1012683,41.104804 55.4705855,41.6419536 C54.8399026,42.1791033 53.8931879,42.103279 53.3560389,41.4725955 C52.0188441,39.9025529 50.0603078,38.9980134 47.997999,38.9980134 C45.9356902,38.9980134 43.9771538,39.9025529 42.6399591,41.4725955 C42.1028101,42.103279 41.1560953,42.1791033 40.5254125,41.6419536 C39.8947297,41.104804 39.8189056,40.1580881 40.3560546,39.5274045 C41.5061188,38.1770778 42.9784289,37.1719004 44.6111192,36.5866291 C42.6012007,35.4198462 41.2500071,33.2427174 41.2500071,30.75 C41.2500071,27.0220779 44.2720814,24 47.999999,24 Z M47.999999,27 C45.9289337,27 44.2500035,28.6789322 44.2500035,30.75 C44.2500035,32.8210678 45.9289337,34.5 47.999999,34.5 C50.0710643,34.5 51.7500035,32.8210678 51.7500035,30.75 C51.7500035,28.6789322 50.0710643,27 47.999999,27 Z" id="Combined-Shape" fill="#FFFFFF" fill-rule="nonzero"></path>
            </g>
        </g>
    </g>
</svg>