<?xml version="1.0" encoding="UTF-8"?>
<svg width="96px" height="96px" viewBox="0 0 96 96" version="1.1" xmlns="http://www.w3.org/2000/svg" xmlns:xlink="http://www.w3.org/1999/xlink">
    <title>icon-white-label</title>
    <g id="Page-1" stroke="none" stroke-width="1" fill="none" fill-rule="evenodd">
        <g id="Artboard" transform="translate(-451.000000, -1747.000000)">
            <g id="icon-white-label" transform="translate(451.000000, 1747.000000)">
                <circle id="Oval-Copy-3" fill="#FE6100" cx="48" cy="48" r="48"></circle>
                <path d="M69.2515281,45.9989283 C70.7722338,45.9989283 72.2305232,46.6036403 73.3041431,47.6789458 L73.3041431,47.6789458 L73.6008586,47.9961813 C74.5002284,49.0336906 75,50.364316 75,51.7465353 C75,53.2669766 74.3952764,54.7249891 73.3202124,55.7980556 L73.3202124,55.7980556 L58.0603828,71.0597904 C57.8509744,71.269225 57.5842522,71.4119808 57.2938359,71.4700636 L57.2938359,71.4700636 L49.7939196,72.9700376 C48.7443497,73.1799503 47.8189801,72.2545865 48.0288941,71.205023 L48.0288941,71.205023 L49.5288774,63.7051533 C49.5869541,63.4147717 49.7296852,63.1480779 49.9390837,62.9386807 L49.9390837,62.9386807 L65.1980786,47.6797811 C66.2725331,46.6036403 67.7308225,45.9989283 69.2515281,45.9989283 Z M69.2515281,48.9988761 C68.5272815,48.9988761 67.8327609,49.2868745 67.3202099,49.8002293 L67.3202099,49.8002293 L52.3817165,64.7393096 L51.4117274,69.5852254 L56.2596732,68.6172422 L71.1998292,53.6758596 C71.638953,53.2375513 71.9131983,52.6649686 71.9825924,52.0544878 L71.9825924,52.0544878 L72.0000335,51.7465353 C72.0000335,51.0226927 71.7121403,50.3285707 71.1988462,49.816229 L71.1988462,49.816229 L70.951959,49.5936741 C70.4712543,49.2104668 69.872311,48.9988761 69.2515281,48.9988761 Z M52.7577123,25 C53.8178664,25 54.8394838,25.3743699 55.6462256,26.0499837 L55.938337,26.3173169 L61.6826126,32.061557 C62.4320976,32.8115177 62.8897458,33.7986636 62.9821926,34.846418 L62.999598,35.2418221 L62.999598,41.4997133 C62.999598,42.3281261 62.3280326,42.9996873 61.4996147,42.9996873 C60.7402317,42.9996873 60.1126483,42.4353893 60.0133245,41.7032509 L59.9996315,41.4997133 L59.9996315,35.2418221 C59.9996315,34.924067 59.8985806,34.616557 59.7144095,34.3624211 L59.5609762,34.1825006 L53.8173802,28.4389402 C53.5923536,28.2140591 53.3033878,28.0680327 52.993438,28.0186173 L52.7577123,27.9999479 L31.4999497,27.9999479 C30.7405667,27.9999479 30.1129833,28.5642458 30.0136596,29.2963842 L29.9999665,29.4999218 L29.9999665,62.4993485 C29.9999665,63.2587268 30.564268,63.8863063 31.2964109,63.9856294 L31.4999497,63.9993224 L41.9998325,63.9993224 C42.8282504,63.9993224 43.4998157,64.6708836 43.4998157,65.4992964 C43.4998157,66.2586747 42.9355143,66.8862542 42.2033713,66.9855773 L41.9998325,66.9992703 L31.4999497,66.9992703 C29.1182484,66.9992703 27.1687083,65.1489793 27.0103815,62.8074408 L27,62.4993485 L27,29.4999218 C27,27.1182352 28.8503025,25.1687072 31.1918556,25.0103814 L31.4999497,25 L52.7577123,25 Z M43.4998157,36.9997915 C44.2591988,36.9997915 44.8867822,37.5640895 44.9861059,38.2962279 L44.999799,38.4997655 L44.999,51.999 L47.999,51.999 L47.9997655,41.4997133 C47.9997655,40.6713006 48.6713309,39.9997394 49.4997487,39.9997394 C50.2591318,39.9997394 50.8867152,40.5640374 50.9860389,41.2961758 L50.999732,41.4997133 L50.999,51.999 L52.4997152,51.9995309 C53.3281331,51.9995309 53.9996985,52.6710921 53.9996985,53.4995049 C53.9996985,54.2588832 53.435397,54.8864627 52.7032541,54.9857858 L52.4997152,54.9994788 L34.4999162,54.9994788 C33.6714984,54.9994788 32.999933,54.3279176 32.999933,53.4995049 C32.999933,52.7401265 33.5642345,52.112547 34.2963774,52.0132239 L34.4999162,51.9995309 L35.999,51.999 L35.9998995,44.4996612 C35.9998995,43.6712485 36.6714649,42.9996873 37.4998827,42.9996873 C38.2592658,42.9996873 38.8868492,43.5639852 38.9861729,44.2961236 L38.999866,44.4996612 L38.999,51.999 L41.999,51.999 L41.9998325,38.4997655 C41.9998325,37.6713527 42.6713979,36.9997915 43.4998157,36.9997915 Z" id="Combined-Shape" fill="#FFFFFF" fill-rule="nonzero"></path>
            </g>
        </g>
    </g>
</svg>