<?xml version="1.0" encoding="UTF-8"?>
<svg width="96px" height="96px" viewBox="0 0 96 96" version="1.1" xmlns="http://www.w3.org/2000/svg" xmlns:xlink="http://www.w3.org/1999/xlink">
    <title>icon-seo-act</title>
    <g id="Page-1" stroke="none" stroke-width="1" fill="none" fill-rule="evenodd">
        <g id="Artboard" transform="translate(-858.000000, -1747.000000)">
            <g id="icon-seo-act" transform="translate(858.000000, 1747.000000)">
                <circle id="Oval-Copy-4" fill="#FE6100" cx="48" cy="48" r="48"></circle>
                <path d="M59.5,70.0000019 C60.3284271,70.0000019 61,70.6715744 61,71.5000019 C61,72.259392 60.4356922,72.886982 59.7035411,72.9863068 L59.5,73.0000019 L53.5,73.0000019 C52.6715729,73.0000019 52,72.3284276 52,71.5000019 C52,70.7406099 52.5643078,70.1130199 53.2964589,70.0136951 L53.5,70.0000019 L59.5,70.0000019 Z M47.8374308,54.0508753 C49.0570387,49.7232451 53.2833798,46.9596223 57.7369185,47.5775574 C62.1904561,48.1954923 65.5047114,52.0053826 65.500009,56.5008003 C65.4983565,59.6299824 63.874687,62.4981716 61.2725237,64.123486 L61.2725237,64.123486 L61,64.2840056 L61,67.0000038 C61,67.7593949 60.4356922,68.3869849 59.7035411,68.4863097 L59.7035411,68.4863097 L59.5,68.5000029 L53.5,68.5000029 C52.6715729,68.5000029 52,67.8284304 52,67.0000038 L52,67.0000038 L52,64.2840056 L51.7599687,64.1436644 C48.5127677,62.1355664 46.8563639,58.250091 47.729911,54.4703148 L47.729911,54.4703148 Z M57.3246137,50.5490878 C54.3555879,50.1371311 51.5380272,51.9795463 50.7249553,54.8646332 C49.9118833,57.74972 51.3527755,60.7922461 54.1000008,61.9912347 C54.6466405,62.229808 55,62.7695736 55,63.3660062 L55,63.3660062 L55,65.5000048 L58,65.5000048 L58,63.3660062 C58,62.8438776 58.270797,62.3651991 58.7049614,62.093978 L58.7049614,62.093978 L58.9007208,61.99092 C61.0855921,61.0387278 62.4987496,58.8825663 62.5000083,56.4984399 C62.5031437,53.5009725 60.2936392,50.9610445 57.3246137,50.5490878 Z M61.7339619,25.0000138 C63.7009485,24.9947325 65.3205474,26.5028767 65.4861957,28.4420543 L65.5,28.7360283 L65.5,38.5000138 C65.5,39.3284402 64.8284271,40.0000138 64,40.0000138 C63.2406085,40.0000138 62.6130181,39.4357053 62.5136932,38.7035546 L62.5,38.5000138 L62.5,35.5 L28,35.5 L27.9999523,55.7500484 C28.002855,56.1140098 28.2625581,56.4160941 28.6088058,56.4851765 L28.762,56.5000138 L35.5,56.5000138 C36.3284271,56.5000138 37,57.1715914 37,58.0000138 C37,58.759409 36.4356922,59.386999 35.7035411,59.4863238 L35.5,59.5000254 L28.766027,59.5000254 C26.7978137,59.5052956 25.1776732,57.9953236 25.0135585,56.0559948 L25,55.762011 L25,28.7106649 C25.017527,26.7500799 26.5394201,25.1532312 28.4591889,25.0104048 L28.75,25.0000138 L61.7339619,25.0000138 Z M44.714,55.0000115 C45.5424271,55.0000115 46.214,55.671584 46.214,56.5000115 C46.214,57.2594016 45.6496922,57.8869916 44.9175411,57.9863164 L44.714,58.0000115 L41.5,58.0000115 C40.6715729,58.0000115 40,57.3284372 40,56.5000115 C40,55.7406195 40.5643078,55.1130295 41.2964589,55.0137047 L41.5,55.0000115 L44.714,55.0000115 Z M71.5,55.0000115 C72.3284271,55.0000115 73,55.671584 73,56.5000115 C73,57.2594016 72.4356922,57.8869916 71.7035411,57.9863164 L71.5,58.0000115 L68.286,58.0000115 C67.4575729,58.0000115 66.786,57.3284372 66.786,56.5000115 C66.786,55.7406195 67.3503078,55.1130295 68.0824589,55.0137047 L68.286,55.0000115 L71.5,55.0000115 Z M69.9330488,45.6397461 C70.4653867,46.172474 70.5134935,47.0058185 70.0775694,47.5928814 L69.9322714,47.7610649 L67.2022714,50.4890632 C66.6162704,51.0746345 65.666523,51.0742865 65.0809512,50.4882859 C64.5486133,49.955558 64.5005065,49.1222134 64.9364306,48.5351505 L65.0817286,48.366967 L67.8117286,45.6389688 C68.3977296,45.0533974 69.347477,45.0537454 69.9330488,45.6397461 Z M45.0199814,45.4937942 L45.1882714,45.6389688 L47.9182714,48.366967 C48.5042725,48.9525384 48.5046205,49.9022852 47.9190488,50.4882859 C47.3867108,51.0210137 46.5534012,51.0697312 45.9660186,50.6342377 L45.7977286,50.4890632 L43.0677286,47.7610649 C42.4817275,47.1754936 42.4813795,46.2257468 43.0669512,45.6397461 C43.5992892,45.1070182 44.4325988,45.0583008 45.0199814,45.4937942 Z M56.5,39.7860213 C57.2593915,39.7860213 57.8869819,40.3503287 57.9863068,41.0824793 L58,41.2860213 L58,44.5000182 C58,45.3284448 57.3284271,46.0000173 56.5,46.0000173 C55.7406085,46.0000173 55.1130181,45.4357099 55.0136932,44.7035592 L55,44.5000182 L55,41.2860213 C55,40.4575937 55.6715729,39.7860213 56.5,39.7860213 Z M61.738,28.0000138 L28.74594,28.0000138 C28.3879722,27.999046 28.0880826,28.2511207 28.0163017,28.5792574 L28,28.7240283 L28,32.5 L62.5,32.5 L62.5000589,28.7493207 C62.4968355,28.3855888 62.2371744,28.0838437 61.8911084,28.0148441 L61.738,28.0000138 Z" id="Combined-Shape" fill="#FFFFFF" fill-rule="nonzero"></path>
            </g>
        </g>
    </g>
</svg>