<?xml version="1.0" encoding="UTF-8"?>
<svg width="96px" height="96px" viewBox="0 0 96 96" version="1.1" xmlns="http://www.w3.org/2000/svg" xmlns:xlink="http://www.w3.org/1999/xlink">
    <title>icon-free-trial</title>
    <g id="Page-1" stroke="none" stroke-width="1" fill="none" fill-rule="evenodd">
        <g id="Artboard" transform="translate(-1265.000000, -1747.000000)">
            <g id="icon-free-trial" transform="translate(1265.000000, 1747.000000)">
                <circle id="Oval-Copy-5" fill="#FE6100" cx="48" cy="48" r="48"></circle>
                <path d="M63.0815895,40.5 C64.7474559,40.5 66.0979074,41.8431458 66.0979074,43.5 L66.0979074,43.5 L66.0979074,49.5 C66.0979074,51.1568542 64.7474559,52.5 63.0815895,52.5 L63.0815895,52.5 L63.0815895,67.5 C63.0815895,69.9852814 61.0559122,72 58.5571127,72 L58.5571127,72 L37.4428873,72 C34.9440878,72 32.9184105,69.9852814 32.9184105,67.5 L32.9184105,67.5 L32.9184105,52.5 C31.2525441,52.5 29.9020926,51.1568542 29.9020926,49.5 L29.9020926,49.5 L29.9020926,43.5 C29.9020926,41.8431458 31.2525441,40.5 32.9184105,40.5 L32.9184105,40.5 Z M46.491,52.5 L35.9347284,52.5 L35.9347284,67.5 C35.9347284,68.2593915 36.5021056,68.8869819 37.2382391,68.9863068 L37.2382391,68.9863068 L37.4428873,69 L46.491,69 L46.491,52.5 Z M60.0652716,52.5 L49.508,52.5 L49.508,69 L58.5571127,69 C59.3437718,69 59.9897598,68.4009736 60.0591083,67.6365306 L60.0652716,67.5 L60.0652716,52.5 Z M46.491,43.5 L32.9184105,43.5 L32.9184105,49.5 L46.491,49.5 L46.491,43.5 Z M63.0815895,43.5 L49.508,43.5 L49.508,49.5 L63.0815895,49.5 L63.0815895,43.5 Z M68.884839,34.8520602 C69.1769829,35.5536644 68.8942202,36.3494162 68.2523152,36.7213232 L68.0685079,36.8118546 L65.2814302,37.9598546 C64.5118806,38.2768328 63.6296782,37.9133262 63.3109758,37.1479398 C63.018832,36.4463356 63.3015947,35.6505838 63.9434997,35.2786768 L64.1273069,35.1881454 L66.9143847,34.0401454 C67.6839342,33.7231672 68.5661367,34.0866738 68.884839,34.8520602 Z M28.8912723,33.9749163 L29.0856153,34.0401454 L31.8726931,35.1881454 C32.6422426,35.5051236 33.0077265,36.3825534 32.6890242,37.1479398 C32.3968804,37.849544 31.6312399,38.2134576 30.9129128,38.0250837 L30.7185698,37.9598546 L27.9314921,36.8118546 C27.1619425,36.4948764 26.7964586,35.6174466 27.115161,34.8520602 C27.4073048,34.150456 28.1729452,33.7865424 28.8912723,33.9749163 Z M61.7570843,27.4393398 C62.292514,27.971873 62.3411895,28.8052003 61.9031106,29.3924233 L61.7570843,29.5606602 L59.6235421,31.6826602 C59.0345694,32.2684466 58.079656,32.2684466 57.4906832,31.6826602 C56.9552535,31.150127 56.9065781,30.3167997 57.344657,29.7295767 L57.4906832,29.5613398 L59.6242254,27.4393398 C60.2131982,26.8535534 61.1681116,26.8535534 61.7570843,27.4393398 Z M36.2066226,27.2941035 L36.3757746,27.4393398 L38.5093168,29.5613398 C39.0982895,30.1471263 39.0982895,31.0968737 38.5093168,31.6826602 C37.973887,32.2151933 37.1360269,32.2636054 36.5456099,31.8278965 L36.3764579,31.6826602 L34.2429157,29.5606602 C33.653943,28.9748737 33.653943,28.0251263 34.2429157,27.4393398 C34.7783454,26.9068067 35.6162055,26.8583946 36.2066226,27.2941035 Z M48,24 C48.7635221,24 49.3945261,24.5643078 49.4943912,25.2964589 L49.508159,25.5 L49.508159,28.5 C49.508159,29.3284271 48.8329332,30 48,30 C47.2364779,30 46.6054739,29.4356922 46.5056088,28.7035411 L46.491841,28.5 L46.491841,25.5 C46.491841,24.6715729 47.1670668,24 48,24 Z" id="Combined-Shape" fill="#FFFFFF" fill-rule="nonzero"></path>
            </g>
        </g>
    </g>
</svg>